<?xml version="1.0" encoding="UTF-8"?>
<!DOCTYPE svg PUBLIC "-//W3C//DTD SVG 1.1//EN" "http://www.w3.org/Graphics/SVG/1.1/DTD/svg11.dtd">
<svg xmlns="http://www.w3.org/2000/svg" version="1.1" width="38px" height="38px" style="shape-rendering:geometricPrecision; text-rendering:geometricPrecision; image-rendering:optimizeQuality; fill-rule:evenodd; clip-rule:evenodd" xmlns:xlink="http://www.w3.org/1999/xlink">
<g><path style="opacity:1" fill="#151d1d" d="M -0.5,-0.5 C 12.1667,-0.5 24.8333,-0.5 37.5,-0.5C 37.5,12.1667 37.5,24.8333 37.5,37.5C 36.8333,37.5 36.1667,37.5 35.5,37.5C 35.2254,33.2251 32.8921,30.8917 28.5,30.5C 27.5,29.1667 26.5,27.8333 25.5,26.5C 26.8599,23.7802 28.1932,21.1136 29.5,18.5C 30.7972,16.6287 31.7972,14.6287 32.5,12.5C 34.1237,14.1368 35.1237,13.8034 35.5,11.5C 35.5466,9.96227 34.8799,8.96227 33.5,8.5C 32.2921,7.76589 30.9587,7.43255 29.5,7.5C 28.5353,4.68025 26.5353,3.34692 23.5,3.5C 22.036,2.84014 20.3693,2.50681 18.5,2.5C 15.0202,2.58156 11.6869,3.24823 8.5,4.5C 4.87743,7.62686 3.37743,11.6269 4,16.5C 4.52767,23.1896 8.02767,27.1896 14.5,28.5C 14.1667,29.5 13.5,30.1667 12.5,30.5C 10.9731,30.427 9.97306,31.0937 9.5,32.5C 9.16667,32.5 8.83333,32.5 8.5,32.5C 4.41081,31.5563 1.74415,33.223 0.5,37.5C 0.166667,37.5 -0.166667,37.5 -0.5,37.5C -0.5,24.8333 -0.5,12.1667 -0.5,-0.5 Z"/></g>
<g><path style="opacity:1" fill="#55864b" d="M 30.5,1.5 C 31.8333,1.5 33.1667,1.5 34.5,1.5C 34.5,3.16667 34.5,4.83333 34.5,6.5C 31.8915,6.39438 29.8915,5.22771 28.5,3C 29.4158,2.72158 30.0825,2.22158 30.5,1.5 Z"/></g>
<g><path style="opacity:1" fill="#a69f2a" d="M 23.5,3.5 C 25.1088,4.89793 25.9421,6.5646 26,8.5C 23.3622,10.6414 20.5289,12.3081 17.5,13.5C 16.391,13.5569 15.391,13.8902 14.5,14.5C 13.8333,14.5 13.1667,14.5 12.5,14.5C 11.609,13.8902 10.609,13.5569 9.5,13.5C 7.95186,13.8212 7.28519,14.8212 7.5,16.5C 6.46746,15.0883 5.80079,13.4216 5.5,11.5C 6.25148,9.00373 7.25148,6.6704 8.5,4.5C 11.6869,3.24823 15.0202,2.58156 18.5,2.5C 20.3693,2.50681 22.036,2.84014 23.5,3.5 Z"/></g>
<g><path style="opacity:1" fill="#57874d" d="M 23.5,3.5 C 26.5353,3.34692 28.5353,4.68025 29.5,7.5C 29.5,11.1667 29.5,14.8333 29.5,18.5C 26.7337,21.1637 24.0671,23.997 21.5,27C 19.26,27.977 16.9267,28.477 14.5,28.5C 8.02767,27.1896 4.52767,23.1896 4,16.5C 3.37743,11.6269 4.87743,7.62686 8.5,4.5C 7.25148,6.6704 6.25148,9.00373 5.5,11.5C 5.80079,13.4216 6.46746,15.0883 7.5,16.5C 7.5,16.8333 7.5,17.1667 7.5,17.5C 6.30789,18.5659 6.64122,19.3992 8.5,20C 12.1667,20.6667 15.8333,20.6667 19.5,20C 20.9423,19.6232 21.9423,18.7899 22.5,17.5C 23.4495,12.9017 22.7828,12.5683 20.5,16.5C 20.5,15.5 20.5,14.5 20.5,13.5C 19.5,13.5 18.5,13.5 17.5,13.5C 20.5289,12.3081 23.3622,10.6414 26,8.5C 25.9421,6.5646 25.1088,4.89793 23.5,3.5 Z"/></g>
<g><path style="opacity:1" fill="#345a51" d="M 29.5,7.5 C 30.9587,7.43255 32.2921,7.76589 33.5,8.5C 32.7659,9.70792 32.4326,11.0413 32.5,12.5C 31.7972,14.6287 30.7972,16.6287 29.5,18.5C 29.5,14.8333 29.5,11.1667 29.5,7.5 Z"/></g>
<g><path style="opacity:1" fill="#55864b" d="M 33.5,8.5 C 34.8799,8.96227 35.5466,9.96227 35.5,11.5C 35.1237,13.8034 34.1237,14.1368 32.5,12.5C 32.4326,11.0413 32.7659,9.70792 33.5,8.5 Z"/></g>
<g><path style="opacity:1" fill="#f1eaf0" d="M 9.5,13.5 C 9.5,14.5 9.5,15.5 9.5,16.5C 8.83333,16.5 8.16667,16.5 7.5,16.5C 7.28519,14.8212 7.95186,13.8212 9.5,13.5 Z"/></g>
<g><path style="opacity:1" fill="#131b1a" d="M 9.5,13.5 C 10.609,13.5569 11.609,13.8902 12.5,14.5C 12.5983,17.2476 11.5983,17.9143 9.5,16.5C 9.5,15.5 9.5,14.5 9.5,13.5 Z"/></g>
<g><path style="opacity:1" fill="#f1eaf0" d="M 17.5,13.5 C 17.5,14.8333 17.5,16.1667 17.5,17.5C 16.5,17.5 15.5,17.5 14.5,17.5C 14.5,16.5 14.5,15.5 14.5,14.5C 15.391,13.8902 16.391,13.5569 17.5,13.5 Z"/></g>
<g><path style="opacity:1" fill="#131b1a" d="M 17.5,13.5 C 18.5,13.5 19.5,13.5 20.5,13.5C 20.5,14.5 20.5,15.5 20.5,16.5C 19.609,17.1098 18.609,17.4431 17.5,17.5C 17.5,16.1667 17.5,14.8333 17.5,13.5 Z"/></g>
<g><path style="opacity:1" fill="#e47849" d="M 22.5,17.5 C 17.4688,18.7829 12.4688,18.7829 7.5,17.5C 7.5,17.1667 7.5,16.8333 7.5,16.5C 8.16667,16.5 8.83333,16.5 9.5,16.5C 11.5983,17.9143 12.5983,17.2476 12.5,14.5C 13.1667,14.5 13.8333,14.5 14.5,14.5C 14.5,15.5 14.5,16.5 14.5,17.5C 15.5,17.5 16.5,17.5 17.5,17.5C 18.609,17.4431 19.609,17.1098 20.5,16.5C 22.7828,12.5683 23.4495,12.9017 22.5,17.5 Z"/></g>
<g><path style="opacity:1" fill="#a7a128" d="M 7.5,17.5 C 12.4688,18.7829 17.4688,18.7829 22.5,17.5C 21.9423,18.7899 20.9423,19.6232 19.5,20C 15.8333,20.6667 12.1667,20.6667 8.5,20C 6.64122,19.3992 6.30789,18.5659 7.5,17.5 Z"/></g>
<g><path style="opacity:1" fill="#345a51" d="M 29.5,18.5 C 28.1932,21.1136 26.8599,23.7802 25.5,26.5C 26.5,27.8333 27.5,29.1667 28.5,30.5C 32.8921,30.8917 35.2254,33.2251 35.5,37.5C 33.8333,37.5 32.1667,37.5 30.5,37.5C 30.3252,35.1556 29.1585,33.489 27,32.5C 21.8128,33.9981 16.9795,33.3315 12.5,30.5C 13.5,30.1667 14.1667,29.5 14.5,28.5C 16.9267,28.477 19.26,27.977 21.5,27C 24.0671,23.997 26.7337,21.1637 29.5,18.5 Z"/></g>
<g><path style="opacity:1" fill="#55864b" d="M 12.5,30.5 C 16.9795,33.3315 21.8128,33.9981 27,32.5C 29.1585,33.489 30.3252,35.1556 30.5,37.5C 28.1667,37.5 25.8333,37.5 23.5,37.5C 22.9423,36.2101 21.9423,35.3768 20.5,35C 16.9591,33.5597 13.2924,32.7264 9.5,32.5C 9.97306,31.0937 10.9731,30.427 12.5,30.5 Z"/></g>
<g><path style="opacity:1" fill="#55864b" d="M 8.5,32.5 C 5.93998,33.3847 3.93998,35.0514 2.5,37.5C 1.83333,37.5 1.16667,37.5 0.5,37.5C 1.74415,33.223 4.41081,31.5563 8.5,32.5 Z"/></g>
<g><path style="opacity:1" fill="#a7a128" d="M 8.5,32.5 C 8.83333,32.5 9.16667,32.5 9.5,32.5C 13.2924,32.7264 16.9591,33.5597 20.5,35C 21.9423,35.3768 22.9423,36.2101 23.5,37.5C 16.5,37.5 9.5,37.5 2.5,37.5C 3.93998,35.0514 5.93998,33.3847 8.5,32.5 Z"/></g>
</svg>
